<mxfile host="app.diagrams.net" modified="2023-08-27T03:23:24.373Z" agent="Mozilla/5.0 (Windows NT 10.0; Win64; x64) AppleWebKit/537.36 (KHTML, like Gecko) Chrome/116.0.0.0 Safari/537.36" etag="HHXuluGyVFmxGn4mk0Yn" version="21.6.9" type="github">
  <diagram name="Page-1" id="JjEwmtj5MDWn0N0PvPRe">
    <mxGraphModel dx="880" dy="563" grid="1" gridSize="10" guides="1" tooltips="1" connect="1" arrows="1" fold="1" page="1" pageScale="1" pageWidth="850" pageHeight="1100" math="0" shadow="0">
      <root>
        <mxCell id="0" />
        <mxCell id="1" parent="0" />
        <mxCell id="XtZk6QxF-_q8XOVQxI7a-14" value="Service" style="swimlane;childLayout=stackLayout;horizontal=1;startSize=50;horizontalStack=0;rounded=1;fontSize=14;fontStyle=0;strokeWidth=2;resizeParent=0;resizeLast=1;shadow=0;dashed=0;align=center;arcSize=4;whiteSpace=wrap;html=1;" vertex="1" parent="1">
          <mxGeometry x="80" y="40" width="200" height="200" as="geometry" />
        </mxCell>
        <mxCell id="XtZk6QxF-_q8XOVQxI7a-15" value="id: Integer (PK)&lt;br&gt;description: Varchar(150)&lt;br&gt;contact information id: Integer FK&lt;br&gt;" style="align=left;strokeColor=none;fillColor=none;spacingLeft=4;fontSize=12;verticalAlign=top;resizable=0;rotatable=0;part=1;html=1;" vertex="1" parent="XtZk6QxF-_q8XOVQxI7a-14">
          <mxGeometry y="50" width="200" height="150" as="geometry" />
        </mxCell>
      </root>
    </mxGraphModel>
  </diagram>
</mxfile>
